# xmcd
#
# Track frame offsets:
#	225
#	16987
#	31123
#	41246
#	53508
#	64377
#	76903
#	88768
#	99358
#	110979
#	124564
#	138651
#	151811
#	164393
#	176021
#	184222
#	194725
#	208457
#	227371
#	239027
#	251066
#	264644
#	276648
#	289655
#
# Disc length: 4037 seconds
#
# Revision: 0
# Processed by: cddbd v1.5.2PL0 Copyright (c) Steve Scherf et al.
# Submitted via: audiograbber 1.83.01
#
DISCID=6c0fc218
DTITLE=Johnny Cash - Johnny Cash Starportrait
DYEAR=1971
DGENRE=Country
TTITLE0=A Boy Named Sue
TTITLE1=Orange Blossom Special
TTITLE2=Wildwood Flower
TTITLE3=Understand Your Man
TTITLE4=Daddy Sang Bass
TTITLE5=Wreck Of The Old 97
TTITLE6=Ring Of Fire
TTITLE7=Bonanza
TTITLE8=In Them Old Cottonfields Back Home
TTITLE9=If I Were A Carpenter
TTITLE10=The Long Black Veil
TTITLE11=Forty Shades Of Green
TTITLE12=Folsom Prison Blues
TTITLE13=Long-Legged Guitar Pickin´Man
TTITLE14=Five Feet High And Rising
TTITLE15=Big River
TTITLE16=Don´t Take Your Guns To Town
TTITLE17=Sunday Morning Coming Down
TTITLE18=I Walk The Line
TTITLE19=Wabash Cannon Ball
TTITLE20=Tennessee Flat-Top Box
TTITLE21=What Is The Truth
TTITLE22=Man In Black
TTITLE23=Singin' In Vietnam Talkin' Blues
EXTD=
EXTT0=
EXTT1=
EXTT2=
EXTT3=
EXTT4=
EXTT5=
EXTT6=
EXTT7=
EXTT8=
EXTT9=
EXTT10=
EXTT11=
EXTT12=
EXTT13=
EXTT14=
EXTT15=
EXTT16=
EXTT17=
EXTT18=
EXTT19=
EXTT20=
EXTT21=
EXTT22=
EXTT23=
PLAYORDER=
